# xmcd CD database file
#
# Track frame offsets:
#	150
#	31296
#	57727
#	73838
#	99986
#	108467
#	122881
#	151252
#	188487
#
# Disc length: 2898 seconds
#
# Revision: 0
# Processed by: cddbd v1.5.1PL0 Copyright (c) Steve Scherf et al.
# Submitted via: CDex 1.51
#
DISCID=780b5009
DTITLE=Javier García - Andén Sur
DYEAR=2005
DGENRE=Jazz
TTITLE0=Andén Sur II
TTITLE1=Viejo Ostende
TTITLE2=Nuevo Arrabal
TTITLE3=Pampa Húmeda
TTITLE4=Paseo en la Frontera
TTITLE5=Robot Charrúa
TTITLE6=Portezuelo
TTITLE7=Samborombón
TTITLE8=Cuentos de la Ruta-Secretos en el Río-Desolación-Tandilia-Regreso
EXTD=YEAR: 2005
EXTT0=
EXTT1=
EXTT2=
EXTT3=
EXTT4=
EXTT5=
EXTT6=
EXTT7=
EXTT8=
PLAYORDER=
